<?xml version="1.0" encoding="utf-8"?>
<!-- Generator: Adobe Illustrator 21.0.0, SVG Export Plug-In . SVG Version: 6.00 Build 0)  -->
<svg version="1.1" xmlns="http://www.w3.org/2000/svg" xmlns:xlink="http://www.w3.org/1999/xlink" x="0px" y="0px"
	 viewBox="0 0 122.3 123" style="enable-background:new 0 0 122.3 123;" xml:space="preserve">
<style type="text/css">
	.st0{clip-path:url(#SVGID_2_);}
	.st1{clip-path:url(#SVGID_4_);}
	.st2{fill:url(#SVGID_5_);}
	.st3{clip-path:url(#SVGID_7_);}
	.st4{fill:url(#SVGID_8_);}
	.st5{clip-path:url(#SVGID_10_);}
	.st6{clip-path:url(#SVGID_12_);fill:url(#SVGID_13_);}
</style>
<g id="Type">
</g>
<g id="Orb">
	<g>
		<g>
			<defs>
				<path id="SVGID_1_" d="M10.4,30.5c-5.7,9.2-9.1,20.1-9.1,31.7c0,11.6,3.3,22.4,9,31.6c5.1,7,22.4,12,33.1,11.5
					c7.5-0.3,14.6-2,21.1-4.8c-25.2-7.1-43.7-30.3-43.7-57.8c0-7.6,1.4-15,4-21.7C19.1,22.9,13.9,25.9,10.4,30.5"/>
			</defs>
			<clipPath id="SVGID_2_">
				<use xlink:href="#SVGID_1_"  style="overflow:visible;"/>
			</clipPath>
			<g class="st0">
				<defs>
					<rect id="SVGID_3_" x="0.8" y="20.6" width="64.1" height="85.5"/>
				</defs>
				<clipPath id="SVGID_4_">
					<use xlink:href="#SVGID_3_"  style="overflow:visible;"/>
				</clipPath>
				<g class="st1">
					<g>
						
							<linearGradient id="SVGID_5_" gradientUnits="userSpaceOnUse" x1="-51.4412" y1="-20.1096" x2="25.1315" y2="56.4632" gradientTransform="matrix(0 -1 -1 0 50.7852 50.7861)">
							<stop  offset="6.134970e-03" style="stop-color:#FFFFFF"/>
							<stop  offset="6.516625e-02" style="stop-color:#DCDCDC"/>
							<stop  offset="0.1635" style="stop-color:#A9A9A9"/>
							<stop  offset="0.2663" style="stop-color:#7C7C7C"/>
							<stop  offset="0.3718" style="stop-color:#565656"/>
							<stop  offset="0.4805" style="stop-color:#373737"/>
							<stop  offset="0.5935" style="stop-color:#1F1F1F"/>
							<stop  offset="0.7125" style="stop-color:#0D0D0D"/>
							<stop  offset="0.8418" style="stop-color:#030303"/>
							<stop  offset="1" style="stop-color:#000000"/>
						</linearGradient>
						<rect y="20" class="st2" width="65.2" height="87.9"/>
					</g>
				</g>
			</g>
		</g>
		<g>
			<defs>
				<path id="SVGID_6_" d="M10.2,30.7c9.2-5.7,20-9,31.6-9c28,0,51.6,19.2,58.2,45.2c3.4-7.2,5.4-15.1,5.4-23.5
					c0-11.6-4.9-26-12.5-32.2c-9.2-5.7-20-9-31.5-9C39.7,2.3,20.5,13.6,10.2,30.7"/>
			</defs>
			<clipPath id="SVGID_7_">
				<use xlink:href="#SVGID_6_"  style="overflow:visible;"/>
			</clipPath>
			<g class="st3">
				<g>
					<linearGradient id="SVGID_8_" gradientUnits="userSpaceOnUse" x1="5.3548" y1="2.6229" x2="112.1725" y2="64.2941">
						<stop  offset="0" style="stop-color:#FFFFFF"/>
						<stop  offset="2.725774e-02" style="stop-color:#F0F0F0"/>
						<stop  offset="0.1396" style="stop-color:#B9B9B9"/>
						<stop  offset="0.2556" style="stop-color:#878787"/>
						<stop  offset="0.3727" style="stop-color:#5E5E5E"/>
						<stop  offset="0.4912" style="stop-color:#3C3C3C"/>
						<stop  offset="0.6116" style="stop-color:#222222"/>
						<stop  offset="0.7346" style="stop-color:#0F0F0F"/>
						<stop  offset="0.8618" style="stop-color:#040404"/>
						<stop  offset="1" style="stop-color:#000000"/>
					</linearGradient>
					<rect x="6.9" class="st4" width="103.8" height="66.9"/>
				</g>
			</g>
		</g>
		<g>
			<defs>
				<path id="SVGID_9_" d="M101.9,42.6c0,33.2-26.9,60.1-60.1,60.1c-11.6,0-22.4-3.2-31.6-9c10.5,17.2,29.5,28.5,51.1,28.5
					c33.2,0,60.1-26.9,60.1-60.1c0-21.6-11.5-41.3-28.6-51C98.9,20,101.9,31.1,101.9,42.6"/>
			</defs>
			<clipPath id="SVGID_10_">
				<use xlink:href="#SVGID_9_"  style="overflow:visible;"/>
			</clipPath>
			<g class="st5">
				<defs>
					<rect id="SVGID_11_" x="10" y="10.7" width="112.2" height="112.2"/>
				</defs>
				<clipPath id="SVGID_12_">
					<use xlink:href="#SVGID_11_"  style="overflow:visible;"/>
				</clipPath>
				<linearGradient id="SVGID_13_" gradientUnits="userSpaceOnUse" x1="113.3945" y1="129.6796" x2="18.3092" y2="3.4973">
					<stop  offset="0.227" style="stop-color:#FCEE21"/>
					<stop  offset="0.2381" style="stop-color:#FCEE2C"/>
					<stop  offset="0.4425" style="stop-color:#FDF49A"/>
					<stop  offset="0.5841" style="stop-color:#FEF9CE"/>
					<stop  offset="0.6503" style="stop-color:#FEFBE1"/>
					<stop  offset="1" style="stop-color:#FDF6A8"/>
				</linearGradient>
				<rect x="9.4" y="10.2" class="st6" width="112.8" height="112.8"/>
			</g>
		</g>
	</g>
</g>
</svg>
