<?xml version="1.0" encoding="utf-8"?>
<!-- Generator: Adobe Illustrator 21.0.0, SVG Export Plug-In . SVG Version: 6.00 Build 0)  -->
<svg version="1.1" id="Layer_1" xmlns="http://www.w3.org/2000/svg" xmlns:xlink="http://www.w3.org/1999/xlink" x="0px" y="0px"
	 viewBox="0 0 749.3 638.1" style="enable-background:new 0 0 749.3 638.1;" xml:space="preserve">
<style type="text/css">
	.st0{fill:#00A3CB;}
	.st1{fill:#CCCCCC;}
</style>
<g>
	<path class="st0" d="M512.2,462.8C411,511.8,149.9,636.7,147,638c-49,0-97.9,0-147,0C1.1,635.5,298.2,0,299,0
		c2.6,0,117.9,0,145.8,0c2.4,5.2,188,390.2,193.5,401.2c8.7,17.1,110.1,234.8,110.9,236.9c-1.9,0-98.3-0.2-145.1-0.1
		C602.1,633.7,515.2,468.1,512.2,462.8z M294.5,418.1c11.4-6,154.1-80.9,161.5-85C429.9,278.1,306.4,15.2,300.6,3.6
		c0.4,2,47.9,188.2,51.8,202.7c0.4,1.6-47.5,101.5-70.4,150.3c-13.2,28.2-41.1,86.8-40.9,86.7C271,429,294.1,418.3,294.5,418.1z"/>
	<path class="st0" d="M748.6,197.9c0,3.5-3.8,146.5-3.9,152.8c-24,11.4-74.1,35.2-76.2,36.2c-1.3-2.8-58.1-122.5-58.1-122.5
		C611.3,264.4,719,212.3,748.6,197.9z"/>
</g>
<g>
	<path class="st1" d="M610.5,264.4c2.3,5,57.8,121.9,57.9,122.6c-5.3,2.8-25.6,12.3-30.1,14.3c-5.3-10.7-56.8-117.3-59.1-122.2
		C587.2,275.5,607.5,265.9,610.5,264.4z"/>
	<path class="st1" d="M293.8,418.5C282.8,435,272,451.6,261,468C224,523.4,147,638,147,638s80.7-166.8,94.5-195.7
		C242.3,441.9,291.7,419.4,293.8,418.5z"/>
	<path class="st1" d="M375.1,161.5c-3,6-18.2,35-22.8,44.8c-4-14.9-53-204.7-53.4-206.3C300.2,2.6,374.5,159.7,375.1,161.5z"/>
</g>
</svg>
