<?xml version="1.0" encoding="utf-8"?>
<!-- Generator: Adobe Illustrator 21.0.0, SVG Export Plug-In . SVG Version: 6.00 Build 0)  -->
<svg version="1.1" id="Layer_1" xmlns="http://www.w3.org/2000/svg" xmlns:xlink="http://www.w3.org/1999/xlink" x="0px" y="0px"
	 viewBox="0 0 749.3 638.1" style="enable-background:new 0 0 749.3 638.1;" xml:space="preserve">
<style type="text/css">
	.st0{fill:#001924;}
</style>
<path class="st0" d="M749.3,638.1c-1.9,0-98.3-0.2-145.1-0.1c-2.2-4.4-89-169.9-92-175.2C411,511.8,149.9,636.7,147,638
	c0,0,77.1-114.6,114-170c11-16.5,21.9-33.1,32.8-49.6c-0.3,0.1-1.5,0.7-3.4,1.5c2.6-1.2,4-1.9,4.1-1.9c11.4-6,154.1-80.9,161.5-85
	c-12.5-26.3-47.3-100.3-80.9-171.5l0,0c-0.4-1.2-33.9-72.2-56.4-119.6c-5.2-11-9.5-20.1-12.6-26.7c-4.2-9-6.9-14.7-7.2-15.1
	c2.6,0,117.9,0,145.8,0c1.5,3.3,78.1,162.2,134.4,279c2,4.2,39.1,81.2,53.7,111.2c3,6.2,4.9,10.1,5.4,11
	C647.1,418.4,748.4,636.1,749.3,638.1z M241.5,442.3c3.6-7.8,28.2-59.7,40.4-85.7c22.9-48.7,70.8-148.7,70.4-150.3v0l0,0
	c0,0,0,0,0-0.1c-0.1-0.4-0.3-1-0.5-1.8C345.5,180.1,299.3,1.5,299,0C298.2,0,1.1,635.5,0,638c49,0,98,0,147,0
	C147,638,227.6,471.2,241.5,442.3L241.5,442.3z M668.5,386.9c2.1-0.9,52.3-24.8,76.2-36.2c0.1-6.3,3.9-149.3,3.9-152.8
	c-29.7,14.4-137.3,66.6-138.2,66.5c0,0,0,0,0,0c0,0,0.1,0,0.1-0.1C612.9,269.3,668.3,386.3,668.5,386.9z"/>
</svg>
